<?xml version="1.0" encoding="UTF-8" standalone="no"?>
<svg
   xmlns:dc="http://purl.org/dc/elements/1.1/"
   xmlns:cc="http://creativecommons.org/ns#"
   xmlns:rdf="http://www.w3.org/1999/02/22-rdf-syntax-ns#"
   xmlns:svg="http://www.w3.org/2000/svg"
   xmlns="http://www.w3.org/2000/svg"
   height="74.000824"
   width="74.000793"
   id="svg2"
   viewBox="0 0 74.000793 74.000824"
   y="0px"
   x="0px"
   version="1.1">
  <metadata
     id="metadata16">
    <rdf:RDF>
      <cc:Work
         rdf:about="">
        <dc:format>image/svg+xml</dc:format>
        <dc:type
           rdf:resource="http://purl.org/dc/dcmitype/StillImage" />
        <dc:title></dc:title>
      </cc:Work>
    </rdf:RDF>
  </metadata>
  <defs
     id="defs14" />
  <g
     id="g4"
     transform="translate(-13.000133,-965.36137)">
    <path
       id="path6"
       style="color:#000000;display:inline;overflow:visible;visibility:visible;opacity:1;fill:#000000;fill-opacity:1;stroke:none;stroke-width:4;stroke-linecap:round;stroke-linejoin:round;stroke-miterlimit:4;stroke-dasharray:none;stroke-dashoffset:0;stroke-opacity:1;marker:none;enable-background:accumulate"
       d="m 81.000141,965.3623 c -3.118808,-0.0493 -6.871531,1.87157 -9.999997,5 -5.121101,4.60899 -10.152,9.77653 -15.000011,15.00005 l -40.000074,-7.99998 -2.999926,5.99991 29.999936,15.00007 -16.999957,19.99995 c -3.898198,-1.2822 -9.999941,-2.741 -9.999945,2 -6.5e-5,0.937 0.234401,1.9024 0.999963,3 L 29,1035.3622 c 1.097728,0.7655 2.06305,1 3,1 4.740981,0 3.282127,-6.1017 2,-10 l 20,-17 15,30 6,-3 -8,-40.00002 c 5.22347,-4.848 10.39101,-9.8789 15,-15 3.128426,-3.12847 5.049276,-6.88119 5,-10 -0.02655,-1.68014 -0.556508,-3.27992 -1.63224,-4.36763 -1.087703,-1.07573 -2.687483,-1.60565 -4.367619,-1.63225 z" />
  </g>
</svg>
