<svg xmlns="http://www.w3.org/2000/svg" xmlns:xlink="http://www.w3.org/1999/xlink" version="1.1" x="0px" y="0px" viewBox="0 0 100 100" enable-background="new 0 0 100 100" xml:space="preserve"><g><g><path d="M46.669,80.842c-0.024,0-0.048-0.001-0.073-0.005l-22.015-3.192c-0.165-0.024-0.307-0.127-0.381-0.278    c-0.073-0.148-0.067-0.324,0.014-0.47l10.167-17.98c0.09-0.159,0.258-0.257,0.439-0.257c0.001,0,0.001,0,0.001,0    c0.182,0,0.35,0.1,0.439,0.259l11.848,21.174c0.093,0.167,0.084,0.373-0.025,0.531C46.989,80.762,46.833,80.842,46.669,80.842z     M25.456,76.753l20.274,2.94L34.819,60.192L25.456,76.753z"></path></g><g><path d="M46.669,80.842c-0.171,0-0.332-0.086-0.425-0.231c-0.102-0.159-0.107-0.362-0.012-0.525l11.667-20.013l-23.087-0.405l0,0    c-0.001,0-0.002,0-0.002,0c-0.002,0-0.003,0.002-0.004,0c-0.001,0.002-0.002,0-0.003,0c-0.001,0-0.001,0-0.002,0s-0.001,0-0.001,0    c-0.022,0-0.046-0.004-0.068-0.008l-18.164-3.12l8.552,20.411c0.075,0.182,0.04,0.392-0.093,0.535    c-0.133,0.146-0.338,0.201-0.525,0.14l-14.197-4.536c-0.014-0.004-0.029-0.01-0.042-0.015c-0.068-0.029-0.126-0.07-0.175-0.12    C6,68.779,6,68.567,6,68.322V53.451c0-0.03,0.003-0.062,0.009-0.095l0,0l0,0c0-0.002,0-0.002,0-0.002l0,0    c0-0.002,0-0.002,0.001-0.002l0,0c0.001-0.005,0.002-0.013,0.004-0.018L9.29,39.303c0.036-0.153,0.14-0.28,0.283-0.344    l5.378-2.437c0,0,0,0,0,0c0.081-0.037,0.166-0.05,0.25-0.043l14.025,1.092c0.017,0.001,0.035,0.003,0.052,0.006    c0.001,0,0.001,0,0.001,0c0.014,0.002,0.026,0.005,0.039,0.008l17.86,4.59l19.037-4.342c0.012-0.002,0.024-0.005,0.037-0.007    c0.017-0.003,0.034-0.005,0.052-0.005l17.558-1.008c0.154-0.01,0.302,0.053,0.404,0.167s0.147,0.269,0.121,0.42l-3.241,19.043    l12.172-2.12l2.831-2.67c0.149-0.142,0.371-0.178,0.558-0.09c0.187,0.086,0.303,0.278,0.291,0.484l-1.008,18.318    c-0.015,0.26-0.226,0.467-0.486,0.476c-0.267,0.007-0.485-0.184-0.518-0.442L93.12,55.382l-11.889,2.071l6.742,16.73    c0.055,0.138,0.046,0.294-0.022,0.426c-0.07,0.131-0.195,0.224-0.34,0.257L70.39,78.562c-0.017,0.003-0.033,0.005-0.05,0.007l0,0    c-0.001,0-0.002,0-0.003,0s-0.001,0-0.001,0c-0.003,0.002-0.006,0.002-0.009,0.002l-23.611,2.27    C46.7,80.842,46.684,80.842,46.669,80.842z M58.782,60.561L47.6,79.742l21.822-2.098L58.782,60.561z M80.487,58.303l-9.299,19.057    l15.625-3.354L80.487,58.303z M59.617,59.993l10.608,17.036l9.448-19.359L59.617,59.993z M11.086,72.28l12.68,4.052l-7.953-18.983    L11.086,72.28z M7.008,68.19c0.266,0.357,1.366,1.539,2.602,2.824L7.008,58.393V68.19z M7.163,54.145l3.394,16.467l4.55-14.372    L7.163,54.145z M94.087,54.986l1.207,9.705l0.629-11.438L94.087,54.986z M35.816,58.678l21.982,0.384L47.154,43.559L35.816,58.678    z M66.492,39.374L59.515,58.99l20.081-2.327L66.492,39.374z M16.648,55.53l17.482,3.004l-5.16-19.332L16.648,55.53z     M48.008,43.021l10.617,15.462l6.923-19.462L48.008,43.021z M29.901,38.776l5.14,19.255l11.276-15.036L29.901,38.776z     M67.304,38.774L80.229,55.83l3.06-17.974L67.304,38.774z M7.245,53.123l7.978,2.104L14.714,38.91L7.245,53.123z M15.68,37.527    l0.526,16.913l12.028-15.936L15.68,37.527z M10.215,39.774l-2.324,9.952l6.138-11.68L10.215,39.774z"></path></g><g><path d="M87.506,74.877c-0.117,0-0.232-0.042-0.326-0.119c-0.154-0.131-0.216-0.341-0.156-0.535l6.02-19.48l-1.502-15.275    c-0.024-0.254,0.144-0.486,0.392-0.542c0.25-0.056,0.5,0.084,0.585,0.324l4.454,12.604l-0.951,0.336l-3.069-8.688l1.105,11.245    c0.006,0.066,0,0.133-0.02,0.197l-5.699,18.443l6.923-3.497l0.455,0.899l-7.983,4.033C87.66,74.858,87.583,74.877,87.506,74.877z"></path></g><g><path d="M92.042,39.922c-0.041,0-0.083-0.006-0.125-0.017l-8.151-2.1c-0.2-0.052-0.349-0.221-0.374-0.427l-1.428-11.596    c-0.029-0.23,0.103-0.449,0.319-0.532c0.216-0.083,0.461-0.008,0.593,0.182l9.58,13.696c0.12,0.173,0.121,0.403,0.001,0.577    C92.361,39.843,92.205,39.922,92.042,39.922z M84.351,36.915l6.497,1.674L83.211,27.67L84.351,36.915z"></path></g><g><path d="M47.676,42.727l-1.006-0.064l1.028-15.973L29.465,38.496c-0.163,0.105-0.372,0.108-0.537,0.008    c-0.165-0.101-0.259-0.288-0.239-0.48l1.461-14.771L15.509,37.344c-0.169,0.162-0.428,0.187-0.625,0.06    c-0.196-0.128-0.279-0.375-0.199-0.595l2.842-7.844l-7.33,10.737l-0.833-0.569l9.58-14.032c0.143-0.209,0.42-0.281,0.646-0.165    c0.227,0.116,0.332,0.382,0.244,0.621l-3.462,9.557l14.067-13.538c0.152-0.146,0.379-0.183,0.569-0.09    c0.19,0.092,0.302,0.293,0.282,0.503l-1.494,15.091l18.195-11.783c0.16-0.103,0.364-0.108,0.529-0.012    c0.164,0.097,0.26,0.278,0.249,0.467L47.676,42.727z"></path></g><g><path d="M82.464,26.226c-0.043,0-0.085-0.005-0.127-0.017l-14.536-3.781c-0.185-0.048-0.326-0.195-0.366-0.38l-1.429-6.554    c-0.043-0.2,0.038-0.406,0.206-0.522s0.39-0.12,0.561-0.009l15.965,10.335c0.208,0.135,0.287,0.4,0.188,0.627    C82.843,26.111,82.66,26.226,82.464,26.226z M68.354,21.53l11.213,2.917l-12.315-7.973L68.354,21.53z"></path></g><g><path d="M48.265,26.225c-0.128,0-0.254-0.049-0.349-0.14c-0.118-0.113-0.173-0.277-0.149-0.438l1.681-11.175    c0.023-0.154,0.115-0.288,0.25-0.364c0.135-0.076,0.297-0.086,0.44-0.027l17.982,7.395c0.206,0.085,0.332,0.294,0.31,0.517    c-0.022,0.222-0.188,0.402-0.406,0.444L48.36,26.216C48.329,26.223,48.297,26.225,48.265,26.225z M50.348,15.256l-1.478,9.835    l17.303-3.328L50.348,15.256z"></path></g><g><path d="M93.114,55.038l-9.627-17.411L68.328,23.026l-1.495,15.348c-0.018,0.178-0.129,0.334-0.291,0.409s-0.353,0.058-0.5-0.044    L48.059,26.192L30.808,22.46l-11.302,3.408c-0.242,0.074-0.502-0.045-0.606-0.276c-0.104-0.232-0.02-0.504,0.197-0.637    l16.301-9.999c0.031-0.02,0.066-0.035,0.102-0.047c0.001,0,0.001,0,0.001,0c0.001,0,0.001,0,0.002,0c0,0,0.001-0.001,0.001-0.001    c0.001,0,0.001,0,0.002,0c0.001,0,0.001,0,0.003,0c0,0,0,0,0.001,0s0.001,0,0.002,0c0,0,0,0,0.001,0l0,0    c0.015-0.004,0.03-0.009,0.045-0.012l0,0c0.001,0,0.001,0,0.002,0h0.001c0,0,0.002-0.001,0.004-0.001c0,0,0.001,0,0.001,0    c0.001,0,0.001,0,0.001,0c0,0,0.001,0,0.002,0c0,0,0,0,0.001,0c0,0,0,0,0.001,0l15.838-2.856c0.062-0.011,0.124-0.011,0.185,0.001    l14.998,2.856c0.261,0.05,0.438,0.292,0.407,0.556s-0.264,0.457-0.527,0.443l-16.446-0.834l-17.485,6.749l15.83,3.425    c0.065,0.014,0.127,0.041,0.182,0.08l17.359,12.11l1.512-15.527c0.02-0.193,0.146-0.357,0.328-0.424    c0.182-0.067,0.385-0.024,0.524,0.109l15.965,15.377c0.035,0.035,0.066,0.075,0.091,0.119l9.663,17.477L93.114,55.038z     M33.698,17.183l-10.754,6.595l7.539-2.272L33.698,17.183z M35.926,15.875l-3.693,4.967l14.517-5.604L35.926,15.875z     M50.933,14.091l8.28,0.42l-7.503-1.429L50.933,14.091z M50.302,13.257l-6.271,1.132l5.656-0.333L50.302,13.257z"></path></g></g></svg>