<?xml version="1.0" encoding="UTF-8" standalone="no"?>
<svg
   xmlns:dc="http://purl.org/dc/elements/1.1/"
   xmlns:cc="http://creativecommons.org/ns#"
   xmlns:rdf="http://www.w3.org/1999/02/22-rdf-syntax-ns#"
   xmlns:svg="http://www.w3.org/2000/svg"
   xmlns="http://www.w3.org/2000/svg"
   id="svg2"
   y="0px"
   x="0px"
   version="1.1"
   viewBox="0 0 46 60">
  <metadata
     id="metadata26">
    <rdf:RDF>
      <cc:Work
         rdf:about="">
        <dc:format>image/svg+xml</dc:format>
        <dc:type
           rdf:resource="http://purl.org/dc/dcmitype/StillImage" />
        <dc:title></dc:title>
      </cc:Work>
    </rdf:RDF>
  </metadata>
  <defs
     id="defs24" />
  <desc
     id="desc6">Created with Sketch.</desc>
  <g
     id="g8"
     fill-rule="evenodd"
     fill="none"
     stroke-width="1"
     stroke="none">
    <g
       id="g10"
       fill="#000000">
      <path
         id="path12"
         d="M32.8154,11.3101 C31.3894,7.4081 28.4164,4.4591 24.0004,2.5041 L24.0004,46.0001 C24.0064,46.0001 36.9824,22.7101 32.8154,11.3101" />
      <path
         id="path14"
         d="M13.1846,11.3101 C9.0176,22.7101 22.0056,45.8231 21.9996,46.0001 C22.0066,46.0001 21.9996,2.5041 21.9996,2.5041 C17.5836,4.4591 14.6106,7.4081 13.1846,11.3101" />
      <path
         id="path16"
         d="M25.3408,53 L20.6588,53 L19.1938,49.581 C20.3358,49.864 21.6698,50 22.9998,50 C24.3308,50 25.6638,49.864 26.8058,49.581 L25.3408,53 Z M44.0828,11.248 C41.0648,4.303 33.0348,0 23.1108,0 L23.0038,0 L22.9998,0 C23.0068,0 23.0118,0.004 23.0178,0.004 C23.0868,0.005 23.1488,0.027 23.2148,0.041 C23.2598,0.052 23.3048,0.046 23.3488,0.063 C23.3608,0.067 23.3718,0.073 23.3838,0.077 C23.3868,0.079 23.3908,0.08 23.3938,0.082 C23.3998,0.084 23.4038,0.086 23.4088,0.088 C23.4118,0.09 23.4148,0.091 23.4188,0.092 C29.1278,2.237 32.9228,5.778 34.6938,10.624 C39.1328,22.769 29.7028,39.693 25.9838,46.291 C26.9878,46.505 27.6458,46.792 27.9088,47 C27.4398,47.37 25.7638,48 22.9998,48 C20.2368,48 18.5608,47.37 18.0908,47 C18.3548,46.792 19.0128,46.505 20.0158,46.291 C16.2978,39.693 6.8668,22.769 11.3058,10.624 C13.0768,5.779 16.8718,2.238 22.5798,0.093 C22.5838,0.091 22.5878,0.09 22.5918,0.088 C22.5968,0.086 22.6008,0.084 22.6058,0.082 C22.6098,0.08 22.6128,0.079 22.6168,0.077 C22.6288,0.073 22.6388,0.067 22.6508,0.063 C22.6958,0.046 22.7408,0.051 22.7858,0.041 C22.8508,0.026 22.9128,0.005 22.9808,0.004 C22.9878,0.004 22.9928,0 22.9998,0 L22.9968,0 L22.8898,0 C12.9658,0 4.9348,4.304 1.9168,11.248 C-2.1172,20.529 2.9178,33.389 16.0828,47.477 C16.1448,47.69 16.2348,47.892 16.3738,48.077 L18.4838,53 L17.9998,53 C17.4478,53 16.9998,53.448 16.9998,54 C16.9998,54.552 17.4478,55 17.9998,55 L17.9998,59 C17.9998,59.552 18.4478,60 18.9998,60 L26.9998,60 C27.5518,60 27.9998,59.552 27.9998,59 L27.9998,55 C28.5518,55 28.9998,54.552 28.9998,54 C28.9998,53.448 28.5518,53 27.9998,53 L27.5168,53 L29.6268,48.077 C29.7648,47.892 29.8548,47.69 29.9168,47.477 C43.0818,33.389 48.1168,20.529 44.0828,11.248 L44.0828,11.248 Z" />
    </g>
  </g>
</svg>
