<?xml version="1.0" encoding="UTF-8" standalone="no"?>
<svg
   xmlns:dc="http://purl.org/dc/elements/1.1/"
   xmlns:cc="http://creativecommons.org/ns#"
   xmlns:rdf="http://www.w3.org/1999/02/22-rdf-syntax-ns#"
   xmlns:svg="http://www.w3.org/2000/svg"
   xmlns="http://www.w3.org/2000/svg"
   xmlns:sodipodi="http://sodipodi.sourceforge.net/DTD/sodipodi-0.dtd"
   xmlns:inkscape="http://www.inkscape.org/namespaces/inkscape"
   id="svg2"
   xml:space="preserve"
   enable-background="new 0 0 100 100"
   viewBox="0 0 89.999748 89.999748"
   y="0px"
   x="0px"
   version="1.1"
   inkscape:version="0.91 r13725"
   sodipodi:docname="eos.svg"
   width="89.999748"
   height="89.999748"><sodipodi:namedview
     pagecolor="#ffffff"
     bordercolor="#666666"
     borderopacity="1"
     objecttolerance="10"
     gridtolerance="10"
     guidetolerance="10"
     inkscape:pageopacity="0"
     inkscape:pageshadow="2"
     inkscape:window-width="671"
     inkscape:window-height="480"
     id="namedview19"
     showgrid="false"
     fit-margin-top="0"
     fit-margin-left="0"
     fit-margin-right="0"
     fit-margin-bottom="0"
     inkscape:zoom="2.36"
     inkscape:cx="45"
     inkscape:cy="45"
     inkscape:window-x="2430"
     inkscape:window-y="290"
     inkscape:window-maximized="0"
     inkscape:current-layer="svg2" /><metadata
     id="metadata40"><rdf:RDF><cc:Work
         rdf:about=""><dc:format>image/svg+xml</dc:format><dc:type
           rdf:resource="http://purl.org/dc/dcmitype/StillImage" /><dc:title></dc:title></cc:Work></rdf:RDF></metadata><defs
     id="defs38" /><g
     id="g4"
     transform="translate(-5,-5.00025)"><g
       id="g6"><path
         id="path8"
         d="m 34.139,46.144 c -0.969,0.969 -2.553,0.969 -3.521,0 L 5.726,21.252 C 4.758,20.284 4.758,18.7 5.726,17.731 L 17.731,5.727 c 0.968,-0.969 2.552,-0.969 3.521,0 l 24.892,24.891 c 0.968,0.968 0.968,2.553 0,3.521 L 34.139,46.144 Z"
         inkscape:connector-curvature="0" /></g></g><g
     id="g10"
     transform="translate(-5,-5.00025)"><g
       id="g12"><path
         id="path14"
         d="m 82.269,94.274 c -0.969,0.968 -2.553,0.968 -3.521,0 L 53.856,69.383 c -0.969,-0.969 -0.969,-2.553 0,-3.521 L 65.861,53.857 c 0.968,-0.969 2.552,-0.969 3.521,10e-4 l 24.891,24.891 c 0.969,0.969 0.969,2.553 0,3.521 L 82.269,94.274 Z"
         inkscape:connector-curvature="0" /></g></g><g
     id="g16"
     transform="translate(-5,-5.00025)"><rect
       id="rect18"
       height="4.1719999"
       width="47.866001"
       transform="matrix(0.7071,0.7071,-0.7071,0.7071,50.0002,-20.7106)"
       y="47.914001"
       x="26.066999" /></g><g
     id="g20"
     transform="translate(-5,-5.00025)"><path
       id="path22"
       d="m 68.344,31.656 c -3.73,-3.729 -9.777,-3.729 -13.507,0 L 31.656,54.837 c -3.73,3.729 -3.73,9.777 0,13.508 3.729,3.729 9.778,3.729 13.507,0 L 68.344,45.164 c 3.73,-3.73 3.73,-9.778 0,-13.508 z"
       inkscape:connector-curvature="0" /></g><g
     id="g24"
     transform="translate(-5,-5.00025)"><path
       id="path26"
       d="m 26.997,73.003 c -2.396,-2.396 -3.942,-5.441 -4.471,-8.807 -0.151,-0.959 0.504,-1.858 1.463,-2.009 0.958,-0.15 1.857,0.503 2.008,1.462 0.413,2.627 1.618,5.002 3.485,6.869 1.867,1.867 4.242,3.072 6.869,3.485 0.96,0.151 1.613,1.05 1.463,2.008 -0.15,0.958 -1.049,1.613 -2.007,1.462 -3.368,-0.528 -6.413,-2.074 -8.81,-4.47 z"
       inkscape:connector-curvature="0" /></g><g
     id="g28"
     transform="translate(-5,-5.00025)"><path
       id="path30"
       d="m 22.279,77.722 c -3.475,-3.476 -5.687,-7.874 -6.395,-12.725 -0.141,-0.959 0.523,-1.852 1.483,-1.992 0.96,-0.14 1.852,0.523 1.992,1.484 0.6,4.096 2.468,7.812 5.404,10.748 2.935,2.935 6.651,4.804 10.748,5.403 0.96,0.141 1.624,1.034 1.484,1.993 -0.141,0.959 -1.033,1.623 -1.993,1.483 -4.85,-0.71 -9.25,-2.922 -12.723,-6.394 z"
       inkscape:connector-curvature="0" /></g></svg>