<?xml version="1.0" encoding="UTF-8" standalone="no"?>
<svg
   xmlns:dc="http://purl.org/dc/elements/1.1/"
   xmlns:cc="http://creativecommons.org/ns#"
   xmlns:rdf="http://www.w3.org/1999/02/22-rdf-syntax-ns#"
   xmlns:svg="http://www.w3.org/2000/svg"
   xmlns="http://www.w3.org/2000/svg"
   xmlns:sodipodi="http://sodipodi.sourceforge.net/DTD/sodipodi-0.dtd"
   xmlns:inkscape="http://www.inkscape.org/namespaces/inkscape"
   id="svg2"
   xml:space="preserve"
   enable-background="new 0 0 100 100"
   viewBox="0 0 93.483101 88.034477"
   y="0px"
   x="0px"
   version="1.1"
   inkscape:version="0.91 r13725"
   sodipodi:docname="observatory.svg"
   width="93.483101"
   height="88.034477"><sodipodi:namedview
     pagecolor="#ffffff"
     bordercolor="#666666"
     borderopacity="1"
     objecttolerance="10"
     gridtolerance="10"
     guidetolerance="10"
     inkscape:pageopacity="0"
     inkscape:pageshadow="2"
     inkscape:window-width="671"
     inkscape:window-height="480"
     id="namedview11"
     showgrid="false"
     fit-margin-top="0"
     fit-margin-left="0"
     fit-margin-right="0"
     fit-margin-bottom="0"
     inkscape:zoom="2.36"
     inkscape:cx="47.208051"
     inkscape:cy="45.143676"
     inkscape:window-x="2160"
     inkscape:window-y="169"
     inkscape:window-maximized="0"
     inkscape:current-layer="svg2" /><metadata
     id="metadata22"><rdf:RDF><cc:Work
         rdf:about=""><dc:format>image/svg+xml</dc:format><dc:type
           rdf:resource="http://purl.org/dc/dcmitype/StillImage" /><dc:title></dc:title></cc:Work></rdf:RDF></metadata><defs
     id="defs20" /><g
     transform="matrix(1.4268526,0,0,1.3511935,-23.935452,-25.064469)"
     id="g4137"><path
       d="m 49.533,28.246 c -13.001,0 -23.541,10.54 -23.541,23.54 l 47.081,0 c 0,-13.001 -10.539,-23.54 -23.54,-23.54 z"
       id="path4"
       inkscape:connector-curvature="0" /><path
       d="m 16.775,60.357 c 0,1.014 0.83,1.843 1.843,1.843 l 61.831,0 c 1.014,0 1.843,-0.829 1.843,-1.843 l 0,-2.762 c 0,-1.014 -0.829,-1.844 -1.843,-1.844 l -61.831,0 c -1.013,0 -1.843,0.83 -1.843,1.844 l 0,2.762 z"
       id="path6"
       inkscape:connector-curvature="0" /><path
       d="m 19.612,81.861 c 0,1.014 0.829,1.842 1.843,1.842 l 56.158,0 c 1.013,0 1.843,-0.828 1.843,-1.842 l 0,-14.017 C 79.456,66.83 78.626,66 77.613,66 l -56.158,0 c -1.014,0 -1.843,0.83 -1.843,1.844 l 0,14.017 z"
       id="path8"
       inkscape:connector-curvature="0" /><path
       d="m 73.685,34.122 c -0.061,-0.083 4.743,-5.854 4.743,-5.854 0.545,-0.643 0.348,-1.69 -0.441,-2.328 l -8.576,-6.938 0,0 c -0.789,-0.637 -1.893,-0.596 -2.455,0.092 -0.066,0.081 -4.615,5.644 -4.615,5.644 -3.883,-1.842 -8.224,-2.874 -12.807,-2.874 l 0,2.867 c 14.941,0 27.055,12.113 27.055,27.055 l 2.867,0 C 79.455,45.179 77.312,39.072 73.685,34.122 Z"
       id="path10"
       inkscape:connector-curvature="0" /></g><path
     id="path12"
     d="M 74.478051,22.542805"
     inkscape:connector-curvature="0" /></svg>