<svg xmlns="http://www.w3.org/2000/svg" xmlns:xlink="http://www.w3.org/1999/xlink" version="1.2" baseProfile="tiny" x="0px" y="0px" viewBox="0 0 100 125" xml:space="preserve"><path d="M35,50c0-5.326,2.877-10.3,7.509-12.979c1.194-0.691,1.603-2.219,0.913-3.414L30.915,11.944   c-0.69-1.196-2.222-1.604-3.415-0.915C13.641,19.03,5.021,33.962,5.005,49.997c-0.001,0.664,0.263,1.301,0.731,1.77   c0.469,0.47,1.105,0.733,1.769,0.733H32.5C33.881,52.5,35,51.381,35,50z M10.086,47.5c0.797-12.462,7.411-23.923,17.788-30.822   l10.048,17.401c-4.276,3.251-7.086,8.108-7.763,13.421H10.086z"/><path d="M72.495,11.032c-1.194-0.688-2.723-0.28-3.413,0.916L56.578,33.606c-0.689,1.195-0.281,2.723,0.913,3.414   C62.123,39.7,65,44.674,65,50c0,1.381,1.119,2.5,2.5,2.5h24.995c1.38,0,2.499-1.118,2.5-2.498   c0.008-7.883-2.076-15.664-6.024-22.502C85.022,20.661,79.325,14.967,72.495,11.032z M69.841,47.5   c-0.677-5.313-3.486-10.17-7.763-13.421L72.124,16.68c5.129,3.401,9.425,7.966,12.517,13.32c3.092,5.354,4.896,11.357,5.278,17.5   H69.841z"/><path d="M60.908,63.894c-0.332-0.574-0.878-0.994-1.52-1.165c-0.638-0.171-1.323-0.08-1.898,0.251   c-4.564,2.645-10.416,2.645-14.98,0c-0.574-0.331-1.259-0.422-1.898-0.251c-0.642,0.171-1.188,0.591-1.52,1.165L26.588,85.552   c-0.332,0.574-0.422,1.258-0.249,1.898c0.172,0.641,0.591,1.187,1.166,1.518c6.948,4.003,14.733,6.004,22.514,6.004   c7.778,0,15.553-2,22.481-6.001c1.195-0.69,1.605-2.22,0.915-3.415L60.908,63.894z M32.209,85.816l10.04-17.391   c4.9,2.068,10.602,2.069,15.502-0.001l10.045,17.397C56.63,91.358,43.398,91.356,32.209,85.816z"/><path d="M40,50c0,5.514,4.486,10,10,10s10-4.486,10-10s-4.486-10-10-10S40,44.486,40,50z M50,45c2.757,0,5,2.243,5,5s-2.243,5-5,5   s-5-2.243-5-5S47.243,45,50,45z"/><text x="0" y="115" fill="#000000" font-size="5px" font-weight="bold" font-family="'Helvetica Neue', Helvetica, Arial-Unicode, Arial, Sans-serif">Created by Arthur Shlain</text><text x="0" y="120" fill="#000000" font-size="5px" font-weight="bold" font-family="'Helvetica Neue', Helvetica, Arial-Unicode, Arial, Sans-serif">from the Noun Project</text></svg>