<svg xmlns="http://www.w3.org/2000/svg" data-name="Layer 1" viewBox="0 0 100 125" x="0px" y="0px"><title>sine_waves</title><path d="M100,7.16c-6.51.13-10.35,9.53-14,18.61-3.29,8.07-6.4,15.7-10.85,15.7h0c-4.67,0-8.4-8.54-12-16.79C59.13,15.67,55.41,7.16,50,7.16h0c-5.39,0-9.12,8.48-13.06,17.46-3.63,8.27-7.39,16.83-12.11,16.83h0c-4.69,0-8.33-8.51-11.84-16.73C9.14,15.7,5.49,7.18,0,7.16H0v1H0c4.81,0,8.48,8.61,12,16.93C15.86,34,19.46,42.47,24.83,42.48h0c5.39,0,9.11-8.47,13-17.45C41.52,16.75,45.28,8.19,50,8.19h0c4.73,0,8.49,8.59,12.12,16.9,3.91,9,7.61,17.41,13,17.41h0c5.14,0,8.38-7.94,11.8-16.34,3.58-8.78,7.28-17.85,13.12-18Z"/><path d="M43,58c-1.65,4-3.2,7.85-5.42,7.85h0c-2.33,0-4.2-4.27-6-8.4-2-4.5-3.83-8.76-6.53-8.76h0c-2.7,0-4.56,4.24-6.53,8.73-1.82,4.14-3.7,8.42-6.05,8.42h0c-2.35,0-4.16-4.25-5.92-8.37C4.57,52.95,2.75,48.69,0,48.68H0v.51H0c2.4,0,4.24,4.31,6,8.46,1.91,4.46,3.71,8.68,6.39,8.68h0c2.69,0,4.55-4.24,6.52-8.72,1.82-4.14,3.7-8.42,6.06-8.42h0c2.37,0,4.24,4.3,6.06,8.45,2,4.48,3.81,8.71,6.48,8.71h0c2.57,0,4.19-4,5.9-8.17,1.79-4.39,3.64-8.93,6.56-9v-.51C46.73,48.74,44.82,53.44,43,58Z"/><path d="M100,48.68c-3.26.07-5.17,4.76-7,9.31-1.65,4-3.2,7.85-5.42,7.85h0c-2.33,0-4.2-4.27-6-8.4-2-4.5-3.83-8.76-6.53-8.76h0c-2.7,0-4.56,4.24-6.53,8.73-1.82,4.14-3.7,8.42-6.05,8.42h0c-2.35,0-4.16-4.25-5.92-8.37-1.93-4.51-3.75-8.77-6.49-8.78h0v.51h0c2.4,0,4.24,4.31,6,8.46,1.91,4.46,3.71,8.68,6.39,8.68h0c2.69,0,4.55-4.24,6.52-8.72,1.82-4.14,3.7-8.42,6.06-8.42h0c2.37,0,4.24,4.3,6.06,8.45,2,4.48,3.81,8.71,6.48,8.71h0c2.57,0,4.19-4,5.9-8.17,1.79-4.39,3.64-8.93,6.56-9Z"/><path d="M21.48,83.41c-.82,2-1.6,3.92-2.71,3.93h0c-1.17,0-2.1-2.13-3-4.2-1-2.25-1.91-4.38-3.27-4.38h0c-1.35,0-2.28,2.12-3.27,4.37-.91,2.07-1.85,4.21-3,4.21h0c-1.17,0-2.08-2.13-3-4.18-1-2.26-1.87-4.39-3.25-4.39H0V79H0c1.2,0,2.12,2.15,3,4.23,1,2.23,1.85,4.34,3.2,4.34h0c1.35,0,2.28-2.12,3.26-4.36.91-2.07,1.85-4.21,3-4.21h0c1.18,0,2.12,2.15,3,4.23,1,2.24,1.9,4.35,3.24,4.35h0c1.29,0,2.09-2,3-4.09S23.54,79,25,79v-.26C23.37,78.79,22.41,81.14,21.48,83.41Z"/><path d="M46.48,83.41c-.82,2-1.6,3.92-2.71,3.93h0c-1.17,0-2.1-2.13-3-4.2-1-2.25-1.91-4.38-3.27-4.38h0c-1.35,0-2.28,2.12-3.27,4.37-.91,2.07-1.85,4.21-3,4.21h0c-1.17,0-2.08-2.13-3-4.18-1-2.26-1.87-4.39-3.25-4.39h0V79h0c1.2,0,2.12,2.15,3,4.23,1,2.23,1.85,4.34,3.2,4.34h0c1.35,0,2.28-2.12,3.26-4.36.91-2.07,1.85-4.21,3-4.21h0c1.18,0,2.12,2.15,3,4.23,1,2.24,1.9,4.35,3.24,4.35h0c1.29,0,2.09-2,3-4.09S48.54,79,50,79v-.26C48.37,78.79,47.41,81.14,46.48,83.41Z"/><path d="M71.48,83.41c-.82,2-1.6,3.92-2.71,3.93h0c-1.17,0-2.1-2.13-3-4.2-1-2.25-1.91-4.38-3.27-4.38h0c-1.35,0-2.28,2.12-3.27,4.37-.91,2.07-1.85,4.21-3,4.21h0c-1.17,0-2.08-2.13-3-4.18-1-2.26-1.87-4.39-3.25-4.39h0V79h0c1.2,0,2.12,2.15,3,4.23,1,2.23,1.85,4.34,3.2,4.34h0c1.35,0,2.28-2.12,3.26-4.36.91-2.07,1.85-4.21,3-4.21h0c1.18,0,2.12,2.15,3,4.23,1,2.24,1.9,4.35,3.24,4.35h0c1.29,0,2.09-2,3-4.09S73.54,79,75,79v-.26C73.37,78.79,72.41,81.14,71.48,83.41Z"/><path d="M100,78.76c-1.63,0-2.59,2.38-3.51,4.65-.82,2-1.6,3.92-2.71,3.93h0c-1.17,0-2.1-2.13-3-4.2-1-2.25-1.91-4.38-3.27-4.38h0c-1.35,0-2.28,2.12-3.27,4.37-.91,2.07-1.85,4.21-3,4.21h0c-1.17,0-2.08-2.13-3-4.18-1-2.26-1.87-4.39-3.25-4.39h0V79h0c1.2,0,2.12,2.15,3,4.23,1,2.23,1.85,4.34,3.2,4.34h0c1.35,0,2.28-2.12,3.26-4.36.91-2.07,1.85-4.21,3-4.21h0c1.18,0,2.12,2.15,3,4.23,1,2.24,1.9,4.35,3.24,4.35h0c1.29,0,2.09-2,3-4.09S98.54,79,100,79Z"/><text x="0" y="115" fill="#000000" font-size="5px" font-weight="bold" font-family="'Helvetica Neue', Helvetica, Arial-Unicode, Arial, Sans-serif">Created by Davo Sime</text><text x="0" y="120" fill="#000000" font-size="5px" font-weight="bold" font-family="'Helvetica Neue', Helvetica, Arial-Unicode, Arial, Sans-serif">from the Noun Project</text></svg>