<?xml version="1.0" encoding="UTF-8" standalone="no"?>
<svg
   xmlns:dc="http://purl.org/dc/elements/1.1/"
   xmlns:cc="http://creativecommons.org/ns#"
   xmlns:rdf="http://www.w3.org/1999/02/22-rdf-syntax-ns#"
   xmlns:svg="http://www.w3.org/2000/svg"
   xmlns="http://www.w3.org/2000/svg"
   xmlns:sodipodi="http://sodipodi.sourceforge.net/DTD/sodipodi-0.dtd"
   xmlns:inkscape="http://www.inkscape.org/namespaces/inkscape"
   id="svg2"
   xml:space="preserve"
   enable-background="new -5.075 -10.156 100 100"
   viewBox="-5.075 -10.156 89.850998 84.844002"
   y="0px"
   x="0px"
   version="1.1"
   inkscape:version="0.91 r13725"
   sodipodi:docname="iss.svg"
   width="89.850998"
   height="84.844002"><sodipodi:namedview
     pagecolor="#ffffff"
     bordercolor="#666666"
     borderopacity="1"
     objecttolerance="10"
     gridtolerance="10"
     guidetolerance="10"
     inkscape:pageopacity="0"
     inkscape:pageshadow="2"
     inkscape:window-width="671"
     inkscape:window-height="480"
     id="namedview6"
     showgrid="false"
     fit-margin-top="0"
     fit-margin-left="0"
     fit-margin-right="0"
     fit-margin-bottom="0"
     inkscape:zoom="2.36"
     inkscape:cx="44.925"
     inkscape:cy="45"
     inkscape:window-x="2324"
     inkscape:window-y="191"
     inkscape:window-maximized="0"
     inkscape:current-layer="svg2" /><metadata
     id="metadata14"><rdf:RDF><cc:Work
         rdf:about=""><dc:format>image/svg+xml</dc:format><dc:type
           rdf:resource="http://purl.org/dc/dcmitype/StillImage" /><dc:title></dc:title></cc:Work></rdf:RDF></metadata><defs
     id="defs12" /><path
     id="path4"
     d="m 84.776,74.688 -89.8509998,0 C 0.16000019,60.475 18.287,49.991 39.851,49.991 61.412,49.99 79.539,60.475 84.776,74.688 Z M 5.8300002,-2.9880001 l -7.17,1.405 7.17,1.40499996 1.4,7.16500004 1.403,-7.16500004 7.1709998,-1.40499996 -7.1709998,-1.405 -1.402,-7.1679999 -1.401,7.1679999 z m 1.401,-2.969 0.717,3.656 3.6579998,0.717 -3.6579998,0.71699996 -0.717,3.65600004 -0.715,-3.65600004 -3.656,-0.71699996 3.656,-0.717 0.715,-3.656 z M 11.356,33.769 4.1850002,35.173 11.356,36.579 l 1.4,7.164 1.402,-7.164 7.171,-1.406 -7.171,-1.404 -1.402,-7.169 -1.4,7.169 z m 1.4,-2.97 0.717,3.657 3.657,0.717 -3.657,0.717 -0.717,3.655 L 12.041,35.89 8.3840002,35.173 12.041,34.456 12.756,30.799 Z m 13.324,-17.771 -7.171,1.405 7.171,1.405 1.4,7.164 1.402,-7.164 7.171,-1.405 L 28.882,13.028 27.48,5.8599999 26.08,13.028 Z m 1.401,-2.969 0.717,3.656 3.657,0.717 -3.657,0.717 -0.717,3.656 -0.715,-3.656 -3.657,-0.717 3.657,-0.717 0.715,-3.656 z m 11.494,18.007 6.848,-12.684 0.59,0.319 -6.849,12.684 4.266,2.303 6.848,-12.684 0.492,0.266 -0.808,1.497 c -0.263,0.484 -0.067,1.097 0.435,1.366 l 5.092,2.75 c 0.501,0.27 1.118,0.098 1.379,-0.387 l 0.809,-1.498 0.721,0.389 -1.487,2.754 c -0.412,0.762 -0.378,1.578 0.075,1.823 l 4.608,2.489 c 0.453,0.244 1.154,-0.178 1.564,-0.939 l 1.487,-2.753 0.692,0.374 -6.849,12.683 4.265,2.302 6.849,-12.682 0.591,0.317 -6.848,12.685 4.264,2.303 14.458,-26.779 -4.265,-2.303 -6.88,12.744 -0.59,-0.319 6.879,-12.743 -4.265,-2.302 -6.879,12.743 -0.692,-0.375 1.486,-2.753 c 0.413,-0.763 0.378,-1.579 -0.076,-1.824 l -1.397,-0.755 0.499,-0.922 c 1.024,0.165 2.093,-0.321 2.621,-1.301 0.667,-1.231 0.224,-2.761 -0.987,-3.416 -1.214,-0.654 -2.736,-0.186 -3.401,1.047 -0.529,0.979 -0.35,2.139 0.353,2.904 l -0.498,0.923 -1.796,-0.968 c -0.454,-0.245 -1.155,0.174 -1.567,0.938 l -1.487,2.753 -0.719,-0.389 0.81,-1.498 c 0.261,-0.484 0.066,-1.096 -0.436,-1.365 l -5.093,-2.75 c -0.5,-0.27 -1.118,-0.098 -1.379,0.386 l -0.809,1.499 -0.492,-0.266 6.88,-12.7420001 -4.264,-2.303 L 47.142,14.349 46.552,14.03 53.432,1.2889999 49.167,-1.0150001 34.71,25.764 38.975,28.066 Z M 53.231,16.342 c 0.2,-0.373 0.677,-0.506 1.063,-0.297 l 3.93,2.12 c 0.387,0.21 0.536,0.681 0.335,1.054 l -1.812,3.354 c -0.202,0.373 -0.678,0.507 -1.065,0.298 L 51.753,20.75 c -0.385,-0.209 -0.534,-0.68 -0.335,-1.054 l 1.813,-3.354 z m 12.012,-1.465 c 0.447,-0.826 1.465,-1.141 2.277,-0.701 0.813,0.438 1.108,1.463 0.663,2.287 -0.445,0.826 -1.466,1.14 -2.276,0.701 -0.811,-0.438 -1.109,-1.463 -0.664,-2.287 z m -3.78,4.261 c 0.354,-0.657 0.927,-1.038 1.276,-0.849 l 3.565,1.926 c 0.353,0.189 0.349,0.876 -0.008,1.533 l -3.19,5.909 c -0.354,0.658 -0.926,1.037 -1.277,0.847 L 58.264,26.58 c -0.351,-0.189 -0.348,-0.877 0.008,-1.533 l 3.191,-5.909 z m 0.191,7.489 c -0.263,0.488 -0.873,0.67 -1.359,0.406 -0.488,-0.264 -0.67,-0.871 -0.407,-1.361 0.265,-0.486 0.873,-0.668 1.36,-0.405 0.489,0.264 0.669,0.874 0.406,1.36 z m -7.463,-6.31 c -0.262,0.487 -0.872,0.67 -1.359,0.406 -0.487,-0.264 -0.671,-0.873 -0.407,-1.361 0.265,-0.487 0.873,-0.668 1.361,-0.405 0.488,0.263 0.669,0.871 0.405,1.36 z m 2.322,1.253 c -0.264,0.487 -0.874,0.669 -1.36,0.406 -0.488,-0.263 -0.669,-0.873 -0.408,-1.36 0.265,-0.488 0.873,-0.67 1.361,-0.406 0.488,0.262 0.67,0.87 0.407,1.36 z"
     inkscape:connector-curvature="0" /></svg>