<?xml version="1.0" encoding="UTF-8" standalone="no"?>
<svg
   xmlns:dc="http://purl.org/dc/elements/1.1/"
   xmlns:cc="http://creativecommons.org/ns#"
   xmlns:rdf="http://www.w3.org/1999/02/22-rdf-syntax-ns#"
   xmlns:svg="http://www.w3.org/2000/svg"
   xmlns="http://www.w3.org/2000/svg"
   xmlns:sodipodi="http://sodipodi.sourceforge.net/DTD/sodipodi-0.dtd"
   xmlns:inkscape="http://www.inkscape.org/namespaces/inkscape"
   version="1.1"
   x="0px"
   y="0px"
   viewBox="0 0 100 100"
   enable-background="new 0 0 100 100"
   xml:space="preserve"
   id="svg2"
   inkscape:version="0.91 r13725"
   sodipodi:docname="spectrum.svg"
   width="100"
   height="100"><metadata
     id="metadata126"><rdf:RDF><cc:Work
         rdf:about=""><dc:format>image/svg+xml</dc:format><dc:type
           rdf:resource="http://purl.org/dc/dcmitype/StillImage" /><dc:title></dc:title></cc:Work></rdf:RDF></metadata><defs
     id="defs124" /><sodipodi:namedview
     pagecolor="#ffffff"
     bordercolor="#666666"
     borderopacity="1"
     objecttolerance="10"
     gridtolerance="10"
     guidetolerance="10"
     inkscape:pageopacity="0"
     inkscape:pageshadow="2"
     inkscape:window-width="2048"
     inkscape:window-height="1100"
     id="namedview122"
     showgrid="false"
     inkscape:zoom="1.888"
     inkscape:cx="50"
     inkscape:cy="62.5"
     inkscape:window-x="1912"
     inkscape:window-y="40"
     inkscape:window-maximized="1"
     inkscape:current-layer="g4" /><g
     id="g4"
     transform="translate(0,-25)"><g
       id="g6"
       transform="translate(0.52966102,24.364407)"><g
         id="g8"><path
           d="m 71.903,95.506 c -0.718,0 -1.301,-0.582 -1.301,-1.3 l -0.033,-58.61 c 0,-0.718 0.582,-1.301 1.3,-1.301 l 0.001,0 c 0.718,0 1.301,0.582 1.301,1.3 l 0.033,58.609 c 0,0.719 -0.582,1.302 -1.301,1.302 l 0,0 z"
           id="path10"
           inkscape:connector-curvature="0" /></g><g
         id="g12"><path
           d="m 75.25,95.506 c -0.719,0 -1.301,-0.582 -1.301,-1.301 l 0,-2.084 c 0,-0.719 0.582,-1.301 1.301,-1.301 0.719,0 1.301,0.582 1.301,1.301 l 0,2.084 c 0,0.719 -0.582,1.301 -1.301,1.301 z"
           id="path14"
           inkscape:connector-curvature="0" /></g><g
         id="g16"><path
           d="m 78.598,95.506 c -0.719,0 -1.301,-0.582 -1.301,-1.301 l 0,-13.818 c 0,-0.719 0.582,-1.301 1.301,-1.301 0.719,0 1.301,0.582 1.301,1.301 l 0,13.818 c 0,0.719 -0.582,1.301 -1.301,1.301 z"
           id="path18"
           inkscape:connector-curvature="0" /></g><g
         id="g20"><path
           d="m 81.891,95.506 c -0.719,0 -1.301,-0.582 -1.301,-1.301 l 0,-2.512 c 0,-0.719 0.582,-1.301 1.301,-1.301 0.719,0 1.301,0.582 1.301,1.301 l 0,2.512 c 0,0.719 -0.582,1.301 -1.301,1.301 z"
           id="path22"
           inkscape:connector-curvature="0" /></g><g
         id="g24"><g
           id="g26"><line
             x1="5.9000001"
             y1="4.6680002"
             x2="5.9000001"
             y2="94.740997"
             id="line28"
             style="fill:#000000" /><path
             d="m 5.9,96.419 c -0.927,0 -1.679,-0.751 -1.679,-1.679 l 0,-90.072 c 0,-0.927 0.752,-1.679 1.679,-1.679 0.927,0 1.679,0.752 1.679,1.679 l 0,90.072 c 0,0.928 -0.752,1.679 -1.679,1.679 z"
             id="path30"
             inkscape:connector-curvature="0" /></g><g
           id="g32"><line
             x1="94.099998"
             y1="94.740997"
             x2="5.9000001"
             y2="94.740997"
             id="line34"
             style="fill:#000000" /><path
             d="m 94.1,96.42 -88.2,0 c -0.927,0 -1.679,-0.752 -1.679,-1.68 0,-0.928 0.752,-1.68 1.679,-1.68 l 88.2,0 c 0.928,0 1.679,0.752 1.679,1.68 0,0.928 -0.751,1.68 -1.679,1.68 z"
             id="path36"
             inkscape:connector-curvature="0" /></g><g
           id="g38"><line
             x1="14.997"
             y1="23.013"
             x2="14.997"
             y2="94.206001"
             id="line40"
             style="fill:none" /></g><g
           id="g42"><path
             stroke-miterlimit="10"
             d="M 25.462,95.333"
             id="path44"
             inkscape:connector-curvature="0"
             style="fill:none;stroke:#000000;stroke-width:2.6013999;stroke-linecap:round;stroke-miterlimit:10" /></g><g
           id="g46"><path
             d="m 11.648,95.506 c -0.718,0 -1.301,-0.582 -1.301,-1.301 l 0,-5.025 c 0,-0.719 0.583,-1.301 1.301,-1.301 0.718,0 1.301,0.582 1.301,1.301 l 0,5.025 c 0,0.719 -0.583,1.301 -1.301,1.301 z"
             id="path48"
             inkscape:connector-curvature="0" /></g><g
           id="g50"><path
             d="m 14.997,95.506 c -0.718,0 -1.301,-0.582 -1.301,-1.301 l 0,-2.512 c 0,-0.719 0.583,-1.301 1.301,-1.301 0.718,0 1.301,0.582 1.301,1.301 l 0,2.512 c -10e-4,0.719 -0.583,1.301 -1.301,1.301 z"
             id="path52"
             inkscape:connector-curvature="0" /></g><g
           id="g54"><path
             d="m 18.343,95.506 c -0.718,0 -1.301,-0.582 -1.301,-1.301 l 0,-35.593 c 0,-0.719 0.583,-1.301 1.301,-1.301 0.718,0 1.301,0.582 1.301,1.301 l 0,35.594 c 0,0.718 -0.583,1.3 -1.301,1.3 z"
             id="path56"
             inkscape:connector-curvature="0" /></g><g
           id="g58"><path
             d="m 21.698,95.506 c -0.718,0 -1.301,-0.582 -1.301,-1.301 l 0,-51.521 c 0,-0.718 0.583,-1.301 1.301,-1.301 0.718,0 1.301,0.583 1.301,1.301 l 0,51.522 c 0,0.718 -0.582,1.3 -1.301,1.3 z"
             id="path60"
             inkscape:connector-curvature="0" /></g><g
           id="g62"><path
             d="m 25.047,95.506 c -0.718,0 -1.301,-0.582 -1.301,-1.301 l 0,-8.902 c 0,-0.719 0.583,-1.301 1.301,-1.301 0.718,0 1.301,0.582 1.301,1.301 l 0,8.902 c 0,0.719 -0.583,1.301 -1.301,1.301 z"
             id="path64"
             inkscape:connector-curvature="0" /></g><g
           id="g66"><path
             d="m 28.399,95.506 c -0.718,0 -1.301,-0.582 -1.301,-1.301 l 0,-8.795 c 0,-0.719 0.583,-1.301 1.301,-1.301 0.718,0 1.301,0.582 1.301,1.301 l 0,8.795 c 0,0.719 -0.583,1.301 -1.301,1.301 z"
             id="path68"
             inkscape:connector-curvature="0" /></g><g
           id="g70"><path
             d="m 31.747,95.506 c -0.718,0 -1.301,-0.582 -1.301,-1.301 l 0,-4.393 c 0,-0.719 0.583,-1.301 1.301,-1.301 0.718,0 1.301,0.582 1.301,1.301 l 0,4.393 c 0,0.719 -0.583,1.301 -1.301,1.301 z"
             id="path72"
             inkscape:connector-curvature="0" /></g><g
           id="g74"><path
             d="m 35.098,95.506 c -0.718,0 -1.301,-0.582 -1.301,-1.301 l 0,-4.393 c 0,-0.719 0.583,-1.301 1.301,-1.301 0.718,0 1.301,0.582 1.301,1.301 l 0,4.393 c -10e-4,0.719 -0.583,1.301 -1.301,1.301 z"
             id="path76"
             inkscape:connector-curvature="0" /></g><g
           id="g78"><path
             d="m 38.444,95.506 c -0.718,0 -1.301,-0.582 -1.301,-1.301 l 0,-2.512 c 0,-0.719 0.583,-1.301 1.301,-1.301 0.718,0 1.301,0.582 1.301,1.301 l 0,2.512 c 0,0.719 -0.583,1.301 -1.301,1.301 z"
             id="path80"
             inkscape:connector-curvature="0" /></g><g
           id="g82"><path
             d="m 41.798,95.506 c -0.718,0 -1.301,-0.582 -1.301,-1.301 l 0,-4.393 c 0,-0.719 0.583,-1.301 1.301,-1.301 0.718,0 1.301,0.582 1.301,1.301 l 0,4.393 c 0,0.719 -0.583,1.301 -1.301,1.301 z"
             id="path84"
             inkscape:connector-curvature="0" /></g><g
           id="g86"><path
             d="m 45.207,95.506 c -0.718,0 -1.301,-0.582 -1.301,-1.301 l 0,-81.695 c 0,-0.718 0.583,-1.301 1.301,-1.301 0.718,0 1.301,0.583 1.301,1.301 l 0,81.696 c 0,0.718 -0.583,1.3 -1.301,1.3 z"
             id="path88"
             inkscape:connector-curvature="0" /></g><g
           id="g90"><path
             d="m 48.557,95.506 c -0.712,0 -1.293,-0.574 -1.3,-1.288 l -0.034,-3.457 c -0.007,-0.719 0.57,-1.307 1.288,-1.313 0.73,0.028 1.307,0.57 1.313,1.288 l 0.034,3.457 c 0.007,0.719 -0.57,1.307 -1.288,1.313 -0.004,0 -0.008,0 -0.013,0 z"
             id="path92"
             inkscape:connector-curvature="0" /></g><g
           id="g94"><path
             d="m 51.905,95.506 c -0.718,0 -1.301,-0.582 -1.301,-1.301 l 0,-57.83 c 0,-0.718 0.583,-1.301 1.301,-1.301 0.719,0 1.301,0.583 1.301,1.301 l 0,57.831 c 0,0.718 -0.582,1.3 -1.301,1.3 z"
             id="path96"
             inkscape:connector-curvature="0" /></g><g
           id="g98"><path
             d="m 55.256,95.506 c -0.719,0 -1.301,-0.582 -1.301,-1.301 l 0,-13.818 c 0,-0.719 0.582,-1.301 1.301,-1.301 0.719,0 1.301,0.582 1.301,1.301 l 0,13.818 c 0,0.719 -0.582,1.301 -1.301,1.301 z"
             id="path100"
             inkscape:connector-curvature="0" /></g><g
           id="g102"><path
             d="m 65.245,95.506 c -0.719,0 -1.301,-0.582 -1.301,-1.301 l 0,-4.393 c 0,-0.719 0.582,-1.301 1.301,-1.301 0.719,0 1.301,0.582 1.301,1.301 l 0,4.393 c -0.001,0.719 -0.583,1.301 -1.301,1.301 z"
             id="path104"
             inkscape:connector-curvature="0" /></g><g
           id="g106"><path
             d="m 58.547,95.506 c -0.719,0 -1.301,-0.582 -1.301,-1.301 l 0,-2.512 c 0,-0.719 0.582,-1.301 1.301,-1.301 0.719,0 1.301,0.582 1.301,1.301 l 0,2.512 c 0,0.719 -0.582,1.301 -1.301,1.301 z"
             id="path108"
             inkscape:connector-curvature="0" /></g><g
           id="g110"><path
             d="m 68.553,95.506 c -0.719,0 -1.301,-0.582 -1.301,-1.301 l 0,-32.572 c 0,-0.719 0.582,-1.301 1.301,-1.301 0.719,0 1.301,0.582 1.301,1.301 l 0,32.572 c 0,0.719 -0.582,1.301 -1.301,1.301 z"
             id="path112"
             inkscape:connector-curvature="0" /></g><g
           id="g114"><path
             d="m 61.901,95.506 c -0.719,0 -1.301,-0.582 -1.301,-1.301 l 0,-2.512 c 0,-0.719 0.582,-1.301 1.301,-1.301 0.719,0 1.301,0.582 1.301,1.301 l 0,2.512 c 0,0.719 -0.582,1.301 -1.301,1.301 z"
             id="path116"
             inkscape:connector-curvature="0" /></g></g></g></g></svg>