<?xml version="1.0" encoding="UTF-8" standalone="no"?>
<svg
   xmlns:dc="http://purl.org/dc/elements/1.1/"
   xmlns:cc="http://creativecommons.org/ns#"
   xmlns:rdf="http://www.w3.org/1999/02/22-rdf-syntax-ns#"
   xmlns:svg="http://www.w3.org/2000/svg"
   xmlns="http://www.w3.org/2000/svg"
   height="100"
   width="100"
   id="svg2"
   xml:space="preserve"
   enable-background="new 0 0 100 100"
   viewBox="0 0 100 100"
   y="0px"
   x="0px"
   version="1.1"><metadata
     id="metadata14"><rdf:RDF><cc:Work
         rdf:about=""><dc:format>image/svg+xml</dc:format><dc:type
           rdf:resource="http://purl.org/dc/dcmitype/StillImage" /><dc:title></dc:title></cc:Work></rdf:RDF></metadata><defs
     id="defs12" /><path
     id="path4"
     d="M 99.518,43.136 C 99.273,41.363 98.94,39.619 98.514,37.909 97.292,33.01 95.353,28.392 92.803,24.181 91.699,22.357 90.472,20.617 89.152,18.954 79.983,7.418 65.847,0 50,0 34.154,0 20.016,7.418 10.849,18.955 9.528,20.617 8.302,22.358 7.199,24.182 4.649,28.393 2.708,33.011 1.487,37.91 1.061,39.619 0.728,41.364 0.484,43.137 0.173,45.381 0,47.67 0,50 c 0,2.33 0.173,4.619 0.483,6.864 0.245,1.773 0.578,3.518 1.003,5.227 1.222,4.9 3.162,9.517 5.712,13.729 1.104,1.824 2.33,3.564 3.65,5.227 C 20.016,92.582 34.154,100 50,100 c 15.846,0 29.984,-7.418 39.152,-18.955 1.32,-1.662 2.547,-3.402 3.651,-5.227 2.549,-4.212 4.489,-8.828 5.711,-13.729 0.426,-1.709 0.759,-3.453 1.004,-5.227 C 99.827,54.618 100,52.329 100,50 100,47.671 99.827,45.381 99.518,43.136 Z M 35.97,7.49 c -2.588,3.048 -4.86,6.931 -6.727,11.465 l -11.46,0 C 22.773,13.778 28.993,9.799 35.97,7.49 Z m -22.515,16.691 13.906,0 c -1.308,4.198 -2.298,8.811 -2.918,13.728 l -17.545,0 C 8.297,32.929 10.536,28.3 13.455,24.181 Z M 5.227,50 c 0,-2.333 0.181,-4.625 0.526,-6.864 l 18.183,0 c -0.155,2.241 -0.242,4.529 -0.242,6.864 0,2.335 0.087,4.623 0.242,6.864 l -18.183,0 C 5.407,54.625 5.227,52.334 5.227,50 Z m 8.228,25.818 C 10.537,71.699 8.297,67.07 6.898,62.089 l 17.544,0 c 0.62,4.918 1.611,9.53 2.918,13.729 l -13.905,0 z m 4.329,5.227 11.46,0 c 1.866,4.534 4.139,8.416 6.727,11.465 C 28.993,90.2 22.774,86.223 17.784,81.045 Z M 47.387,94.399 C 42.595,93.075 38.247,88.178 34.976,81.045 l 12.411,0 c 0,5.921 0,10.559 0,13.354 z m 0,-18.581 -14.477,0 C 31.506,71.684 30.423,67.049 29.742,62.089 l 17.646,0 c -10e-4,4.939 -10e-4,9.559 -10e-4,13.729 z m 0,-25.818 c 0,2.332 0,4.623 0,6.864 l -18.206,0 C 29.01,54.62 28.919,52.327 28.919,50 c 0,-2.328 0.09,-4.62 0.262,-6.864 l 18.206,0 c 0,2.241 0,4.531 0,6.864 z m 0,-12.091 -17.646,0 c 0.681,-4.96 1.765,-9.595 3.168,-13.728 l 14.478,0 c 0,4.169 0,8.789 0,13.728 z m 0,-18.954 -12.411,0 C 38.248,11.82 42.595,6.925 47.387,5.6 c 0,2.795 0,7.434 0,13.355 z m 39.158,5.226 c 2.919,4.119 5.157,8.748 6.557,13.728 l -17.544,0 c -0.621,-4.917 -1.611,-9.53 -2.919,-13.728 l 13.906,0 z m -4.328,-5.226 -11.46,0 C 68.891,14.421 66.617,10.538 64.03,7.491 71.007,9.799 77.227,13.778 82.217,18.955 Z M 52.613,5.6 c 4.793,1.325 9.14,6.22 12.411,13.354 l -12.411,0 0,-13.354 z m 0,18.581 14.477,0 c 1.405,4.133 2.488,8.768 3.169,13.728 l -17.646,0 0,-13.728 z m 0,18.955 18.206,0 c 0.17,2.244 0.261,4.536 0.261,6.864 0,2.328 -0.091,4.621 -0.261,6.864 l -18.206,0 0,-13.728 z m 0,18.954 17.646,0 c -0.681,4.96 -1.764,9.595 -3.169,13.729 l -14.477,0 0,-13.729 z m 0,32.309 0,-13.354 12.411,0 C 61.753,88.179 57.406,93.074 52.613,94.399 Z M 64.03,92.51 c 2.587,-3.049 4.86,-6.932 6.726,-11.465 l 11.46,0 C 77.226,86.222 71.007,90.2 64.03,92.51 Z m 22.515,-16.692 -13.907,0 c 1.309,-4.198 2.299,-8.811 2.92,-13.729 l 17.544,0 c -1.4,4.981 -3.638,9.61 -6.557,13.729 z m 7.702,-18.955 -18.184,0 c 0.156,-2.241 0.243,-4.528 0.243,-6.864 0,-2.334 -0.087,-4.623 -0.243,-6.864 l 18.184,0 c 0.346,2.238 0.526,4.53 0.526,6.864 0,2.335 -0.18,4.626 -0.526,6.864 z" /></svg>