<svg xmlns="http://www.w3.org/2000/svg" xmlns:xlink="http://www.w3.org/1999/xlink" version="1.1" x="0px" y="0px" viewBox="0 0 512 640" enable-background="new 0 0 512 512" xml:space="preserve"><path d="M507.7,4.3c-1.5-1.5-3.5-2.3-5.6-2.3L9.9,2C5.6,2,2,5.6,2,9.9v492.1c0,4.4,3.6,7.9,7.9,7.9h492.1c4.4,0,7.9-3.6,7.9-7.9V9.9  C510,7.8,509.2,5.8,507.7,4.3z M325.5,17.9h107.2V84H325.5V17.9z M140.9,263.9h107.2v66.1H140.9V263.9z M79.4,248.1v-66.1h107.2  v66.1H79.4z M202.4,248.1v-66.1h107.2v66.1H202.4z M263.9,263.9h107.2v66.1H263.9V263.9z M325.5,248.1v-66.1l107.2,0v66.1H325.5z   M371.1,99.9V166l-107.2,0V99.9H371.1z M202.4,17.9l107.2,0V84H202.4V17.9z M248.1,99.9V166H140.9V99.9H248.1z M79.4,17.9h107.2V84  H79.4V17.9z M17.9,17.9l45.6,0V84H17.9V17.9z M17.9,99.9H125V166H17.9V99.9z M17.9,181.9h45.6v66.1H17.9V181.9z M17.9,263.9l107.2,0  v66.1H17.9V263.9z M17.9,346h45.6v66.1l-45.6,0V346z M125,494.1H17.9V428H125V494.1z M79.4,412.1V346h107.2v66.1L79.4,412.1z   M248.1,494.1H140.9V428l107.2,0V494.1z M202.4,412.1V346h107.2v66.1L202.4,412.1z M371.1,494.1H263.9V428l107.2,0V494.1z   M325.5,412.1V346h107.2v66.1H325.5z M494.1,494.1H387V428h107.2V494.1z M494.1,412.1h-45.6V346h45.6V412.1z M494.1,330.1H387v-66.1  h107.2V330.1z M494.1,248.1h-45.6v-66.1h45.6V248.1z M494.1,166L387,166V99.9h107.2V166z M494.1,84h-45.6V17.9l45.6,0V84z"/><text x="0" y="527" fill="#000000" font-size="5px" font-weight="bold" font-family="'Helvetica Neue', Helvetica, Arial-Unicode, Arial, Sans-serif">Created by Creative Stall</text><text x="0" y="532" fill="#000000" font-size="5px" font-weight="bold" font-family="'Helvetica Neue', Helvetica, Arial-Unicode, Arial, Sans-serif">from the Noun Project</text></svg>